<svg width="81" height="80" viewBox="0 0 81 80" fill="none" xmlns="http://www.w3.org/2000/svg">
<rect x="0.531189" width="80" height="80" rx="40" fill="black"/>
<path fill-rule="evenodd" clip-rule="evenodd" d="M34.5312 45.0002C36.7403 45.0002 38.5312 43.2094 38.5312 41.0002C38.5312 38.7911 36.7403 37.0002 34.5312 37.0002C32.322 37.0002 30.5312 38.7911 30.5312 41.0002C30.5312 43.2094 32.322 45.0002 34.5312 45.0002ZM34.5312 43.0002C35.6357 43.0002 36.5312 42.1048 36.5312 41.0002C36.5312 39.8957 35.6357 39.0002 34.5312 39.0002C33.4266 39.0002 32.5312 39.8957 32.5312 41.0002C32.5312 42.1048 33.4266 43.0002 34.5312 43.0002Z" fill="white"/>
<path fill-rule="evenodd" clip-rule="evenodd" d="M46.5312 45.0002C48.7403 45.0002 50.5312 43.2094 50.5312 41.0002C50.5312 38.7911 48.7403 37.0002 46.5312 37.0002C44.322 37.0002 42.5312 38.7911 42.5312 41.0002C42.5312 43.2094 44.322 45.0002 46.5312 45.0002ZM46.5312 43.0002C47.6357 43.0002 48.5312 42.1048 48.5312 41.0002C48.5312 39.8957 47.6357 39.0002 46.5312 39.0002C45.4266 39.0002 44.5312 39.8957 44.5312 41.0002C44.5312 42.1048 45.4266 43.0002 46.5312 43.0002Z" fill="white"/>
<path fill-rule="evenodd" clip-rule="evenodd" d="M34.5352 51.1149L32.9855 53.3777C31.7389 55.0994 29.411 55.5125 27.6823 54.3187L22.3702 50.6502C21.2213 49.8567 20.5312 48.5209 20.5312 47.0905C20.5312 46.7948 20.5612 46.4975 20.6202 46.2081C21.8766 40.0502 22.9663 37.4526 24.9931 32.6214C25.3566 31.7551 25.7502 30.8169 26.1803 29.7735C26.5285 28.9286 27.0983 28.1697 27.8633 27.6365C29.1141 26.7648 30.2265 26.162 31.4406 25.7494C32.6423 25.341 33.9003 25.1339 35.4244 25.0059C35.4989 24.9976 35.5736 24.9981 35.6469 25.0071C35.9271 25.0411 36.1886 25.1973 36.3553 25.4492C36.3855 25.4946 36.4123 25.5426 36.4353 25.593L38.2069 29.2632C38.9367 29.1878 39.7129 29.1438 40.5312 29.1438C41.3494 29.1438 42.1257 29.1878 42.8555 29.2632L44.627 25.5931C44.6501 25.5424 44.6771 25.4941 44.7075 25.4485C44.8034 25.3039 44.9305 25.1909 45.0745 25.1145C45.2465 25.0232 45.4425 24.9842 45.6379 25.0059C47.1621 25.1339 48.42 25.341 49.6218 25.7494C50.8358 26.162 51.9482 26.7648 53.199 27.6365C53.964 28.1697 54.5338 28.9286 54.8821 29.7735C55.3121 30.8169 55.7057 31.755 56.0692 32.6214C58.096 37.4526 59.1857 40.0501 60.4421 46.2081C60.5012 46.4975 60.5312 46.7948 60.5312 47.0905C60.5312 48.5209 59.841 49.8567 58.6921 50.6502L53.38 54.3187C51.6513 55.5125 49.3234 55.0994 48.0768 53.3777L46.4535 51.1355C44.9001 51.568 42.89 51.9334 40.5311 51.9334C38.1349 51.9334 36.0985 51.5563 34.5352 51.1149ZM32.064 27.7179C32.9043 27.4324 33.8099 27.2537 34.9421 27.1321L36.1234 29.5794C35.1861 29.7679 34.3618 29.9981 33.6652 30.229C32.7488 30.5327 31.8871 30.9198 31.0452 31.3701C30.5544 31.6326 30.3889 32.2682 30.6627 32.765C30.9365 33.2619 31.5456 33.431 32.0369 33.1697C32.7491 32.791 33.4675 32.4697 34.2746 32.2022C35.7576 31.7108 37.9041 31.2156 40.5312 31.2156C43.1582 31.2156 45.3047 31.7108 46.7877 32.2022C47.5948 32.4697 48.3132 32.791 49.0254 33.1697C49.5168 33.431 50.1258 33.2619 50.3996 32.765C50.6734 32.2682 50.508 31.6324 50.0177 31.369C49.1829 30.9206 48.3408 30.5417 47.3971 30.229C46.7005 29.9981 45.8762 29.7679 44.9389 29.5794L46.1202 27.1321C47.2524 27.2537 48.1581 27.4324 48.9983 27.7179C49.9925 28.0558 50.9389 28.5583 52.0826 29.3554C52.4988 29.6455 52.8319 30.0756 53.0427 30.587C53.4885 31.6684 53.8939 32.6323 54.2666 33.5182C56.2099 38.1378 57.2613 40.6372 58.4854 46.6365C58.5157 46.785 58.5312 46.9387 58.5312 47.0905C58.5312 47.8282 58.1752 48.5171 57.5827 48.9264L52.2706 52.5948C51.4251 53.1787 50.2865 52.9767 49.6768 52.1346L48.4628 50.4579C49.0111 50.2347 49.5008 49.9961 50.0199 49.7124C50.5084 49.4455 50.6734 48.809 50.3996 48.3121C50.1258 47.8153 49.5167 47.6462 49.0254 47.9074C48.3132 48.2861 47.5948 48.6075 46.7876 48.8749C45.3047 49.3664 43.1582 49.8616 40.5311 49.8616C37.9041 49.8616 35.7576 49.3664 34.2746 48.8749C33.4528 48.6026 32.7229 48.2744 31.9978 47.8866C31.5286 47.6357 30.9462 47.7976 30.6844 48.2726C30.4063 48.7774 30.6056 49.4216 31.1036 49.6895L31.3269 49.8102C31.7387 50.0334 32.1187 50.2393 32.6057 50.4492L31.3855 52.1346C30.7758 52.9767 29.6372 53.1787 28.7917 52.5948L23.4796 48.9264C22.8871 48.5171 22.5312 47.8282 22.5312 47.0905C22.5312 46.9387 22.5467 46.785 22.577 46.6365C23.801 40.6372 24.8525 38.1378 26.7958 33.5182C27.1684 32.6323 27.5739 31.6685 28.0196 30.587C28.2304 30.0756 28.5636 29.6455 28.9798 29.3554C30.1234 28.5583 31.0699 28.0558 32.064 27.7179Z" fill="white"/>
</svg>
