<svg width="57" height="57" viewBox="0 0 57 57" fill="none" xmlns="http://www.w3.org/2000/svg">
<path fill-rule="evenodd" clip-rule="evenodd" d="M1.49905 23.9938H23.9998V19.041C23.9998 17.1012 24.7913 15.3383 26.0655 14.0611C27.3397 12.7869 29.1026 11.9954 31.0454 11.9954H31.9538C33.0721 11.9954 34.0825 11.5427 34.811 10.8112L34.838 10.7872C35.5545 10.0586 35.9983 9.05428 35.9983 7.95098V1.49905C35.9983 0.671576 36.6728 0 37.5003 0C38.3278 0 38.9994 0.671576 38.9994 1.49905V7.95098C38.9994 9.88176 38.2079 11.6416 36.9367 12.9188L36.9307 12.9248C35.6505 14.202 33.8906 14.9935 31.9538 14.9935H31.0454C29.9331 14.9935 28.9197 15.4492 28.1882 16.1838C27.4567 16.9153 27.0009 17.9287 27.0009 19.041V23.9938H55.5009C56.3284 23.9938 57 24.6654 57 25.4959V55.4979C57 56.3284 56.3284 56.997 55.5009 56.997H1.49905C0.671576 56.997 0 56.3284 0 55.4979V25.4959C0 24.6654 0.671576 23.9938 1.49905 23.9938ZM42.0005 46.5006C42.0005 47.3281 41.3259 47.9997 40.4984 47.9997C39.6709 47.9997 38.9994 47.3281 38.9994 46.5006V43.4995C38.9994 42.6721 39.6709 42.0005 40.4984 42.0005C41.3259 42.0005 42.0005 42.6721 42.0005 43.4995V46.5006ZM39.0054 34.4992C39.0054 33.6747 39.6739 33.0062 40.4984 33.0062C41.3229 33.0062 41.9915 33.6747 41.9915 34.4992L41.9945 37.5003C41.9945 38.3248 41.3229 38.9934 40.4984 38.9934C39.6739 38.9934 39.0054 38.3248 39.0054 37.5003V34.4992ZM34.4992 42.0005C33.6717 42.0005 33.0002 41.3289 33.0002 40.5014C33.0002 39.6709 33.6717 38.9994 34.4992 38.9994H37.5003C38.3278 38.9994 38.9994 39.6709 38.9994 40.5014C38.9994 41.3289 38.3278 42.0005 37.5003 42.0005H34.4992ZM46.5006 39.0054C47.3251 39.0054 47.9937 39.6739 47.9937 40.4984C47.9937 41.3229 47.3251 41.9915 46.5006 41.9915L43.4995 41.9945C42.675 41.9945 42.0065 41.3259 42.0065 40.5014C42.0065 39.6769 42.675 39.0054 43.4995 39.0054H46.5006ZM9.00032 41.9885C8.17584 41.9885 7.50426 41.3199 7.50426 40.4924C7.50426 39.6709 8.17584 38.9994 9.00032 38.9994H15.0055V32.9942C15.0055 32.1697 15.6771 31.5011 16.5016 31.5011C17.3261 31.5011 17.9946 32.1697 17.9946 32.9942V38.9994L23.9998 39.0024C24.8243 39.0024 25.4929 39.6709 25.4929 40.4954C25.4929 41.3199 24.8243 41.9885 23.9998 41.9885H17.9946L17.9916 47.9937C17.9916 48.8212 17.3231 49.4897 16.4986 49.4897C15.6741 49.4897 15.0055 48.8212 15.0055 47.9937V41.9885H9.00032ZM3.0011 53.9989H54.0019V26.9949H3.0011V53.9989Z" fill="#8FC543"/>
</svg>
