<svg width="175" height="175" viewBox="0 0 175 175" fill="none" xmlns="http://www.w3.org/2000/svg">
<circle cx="87.5" cy="87.5" r="77.5" fill="black" stroke="black" stroke-width="20"/>
<path d="M47.8457 93.2617C48.9538 93.2917 50.0319 93.681 51.0801 94.4297C52.1582 95.1784 53.1016 96.2266 53.9102 97.5742C54.7188 98.9219 55.3477 100.539 55.7969 102.426C56.276 104.312 56.5007 106.424 56.4707 108.76C56.4108 111.365 56.0964 113.776 55.5273 115.992C54.9583 118.208 54.1647 120.125 53.1465 121.742C52.1582 123.359 50.9603 124.617 49.5527 125.516C48.1452 126.414 46.5879 126.848 44.8809 126.818C43.2637 126.788 41.7812 126.429 40.4336 125.74C39.1159 125.051 37.9928 124.018 37.0645 122.641C36.1361 121.263 35.4173 119.526 34.9082 117.43C34.429 115.333 34.2194 112.863 34.2793 110.018C34.3392 107.173 34.7585 104.687 35.5371 102.561C36.3457 100.404 37.304 98.6074 38.4121 97.1699C39.5202 95.7025 40.6582 94.5944 41.8262 93.8457C42.9941 93.0671 43.9824 92.6328 44.791 92.543C45.3001 92.9023 45.6595 93.2467 45.8691 93.5762C46.1087 93.4863 46.3783 93.4115 46.6777 93.3516C47.0072 93.2917 47.3965 93.2617 47.8457 93.2617ZM51.8887 109.029C51.9186 107.502 51.8138 106.035 51.5742 104.627C51.3346 103.189 51.0052 101.917 50.5859 100.809C50.1966 99.7005 49.7474 98.8171 49.2383 98.1582C48.7292 97.4694 48.2201 97.11 47.7109 97.0801C47.3216 97.11 46.9323 97.2298 46.543 97.4395C46.2135 97.6491 45.8542 97.9635 45.4648 98.3828C45.0755 98.8021 44.7161 99.401 44.3867 100.18C44.0872 99.7604 43.8926 99.3112 43.8027 98.832C43.7428 98.3529 43.7428 97.8737 43.8027 97.3945C42.9941 97.9935 42.2904 98.7422 41.6914 99.6406C41.0924 100.509 40.5983 101.482 40.209 102.561C39.8197 103.609 39.5202 104.732 39.3105 105.93C39.1009 107.098 38.9811 108.296 38.9512 109.523C38.8913 111.979 39.0111 114.076 39.3105 115.812C39.64 117.549 40.0742 118.987 40.6133 120.125C41.1823 121.233 41.8411 122.057 42.5898 122.596C43.3385 123.105 44.1471 123.359 45.0156 123.359C46.0339 123.389 46.9473 123.03 47.7559 122.281C48.5944 121.503 49.3132 120.454 49.9121 119.137C50.5111 117.819 50.9753 116.292 51.3047 114.555C51.6641 112.818 51.8587 110.976 51.8887 109.029ZM71.4746 109.209C71.4746 109.628 71.3548 110.062 71.1152 110.512C70.9056 110.931 70.6361 111.335 70.3066 111.725C69.9772 112.114 69.6029 112.458 69.1836 112.758C68.7943 113.027 68.4199 113.192 68.0605 113.252C68.3001 112.324 68.375 111.605 68.2852 111.096C68.1953 110.587 68.0456 110.212 67.8359 109.973C67.5964 109.703 67.2969 109.553 66.9375 109.523C66.3984 109.523 65.8743 109.838 65.3652 110.467C64.8861 111.066 64.4668 111.814 64.1074 112.713C63.748 113.581 63.4635 114.525 63.2539 115.543C63.0443 116.531 62.9395 117.43 62.9395 118.238C62.9095 118.807 62.9245 119.361 62.9844 119.9C63.0143 120.35 63.0592 120.814 63.1191 121.293C63.209 121.772 63.3288 122.146 63.4785 122.416C63.2988 122.566 62.9993 122.745 62.5801 122.955C62.1908 123.165 61.7715 123.299 61.3223 123.359C60.903 123.419 60.5137 123.344 60.1543 123.135C59.8249 122.925 59.6452 122.476 59.6152 121.787C59.5553 121.128 59.5104 120.395 59.4805 119.586C59.4805 118.747 59.4805 117.924 59.4805 117.115C59.5104 116.277 59.5404 115.453 59.5703 114.645C59.6003 113.836 59.6452 113.087 59.7051 112.398C59.765 111.081 59.7949 110.062 59.7949 109.344C59.7949 108.625 59.7799 107.936 59.75 107.277C59.75 107.158 59.9447 106.993 60.334 106.783C60.7533 106.544 61.2025 106.334 61.6816 106.154C62.1908 105.975 62.6549 105.87 63.0742 105.84C63.4935 105.81 63.7031 105.9 63.7031 106.109C63.7031 106.439 63.6582 107.098 63.5684 108.086C63.5085 109.044 63.4186 110.048 63.2988 111.096C63.5085 110.527 63.778 109.913 64.1074 109.254C64.4668 108.595 64.8711 107.981 65.3203 107.412C65.7695 106.843 66.2786 106.379 66.8477 106.02C67.4167 105.63 68.0456 105.436 68.7344 105.436C69.2734 105.436 69.7077 105.6 70.0371 105.93C70.3965 106.259 70.681 106.633 70.8906 107.053C71.1003 107.472 71.25 107.891 71.3398 108.311C71.4297 108.73 71.4746 109.029 71.4746 109.209ZM77.8535 123.404C77.2246 123.404 76.5807 123.24 75.9219 122.91C75.263 122.581 74.6491 122.087 74.0801 121.428C73.5111 120.739 73.0469 119.9 72.6875 118.912C72.3281 117.894 72.1484 116.711 72.1484 115.363C72.1484 113.387 72.403 111.755 72.9121 110.467C73.4212 109.149 74.0352 108.101 74.7539 107.322C75.5026 106.514 76.3112 105.945 77.1797 105.615C78.0482 105.286 78.8418 105.121 79.5605 105.121C80.3092 105.121 80.9232 105.256 81.4023 105.525C81.9115 105.765 82.3307 106.049 82.6602 106.379V105.525C82.8398 105.376 83.0345 105.241 83.2441 105.121C83.4837 105.001 83.7233 104.911 83.9629 104.852C84.2025 104.762 84.457 104.717 84.7266 104.717H85.4004C85.5801 104.747 85.7598 104.777 85.9395 104.807C86.1491 104.837 86.2988 104.911 86.3887 105.031C86.209 108.954 86.0592 112.129 85.9395 114.555C85.8197 116.98 85.7298 118.867 85.6699 120.215C85.5801 121.802 85.5202 122.955 85.4902 123.674C85.4303 124.932 85.2656 126.174 84.9961 127.402C84.7266 128.66 84.3073 129.783 83.7383 130.771C83.1693 131.76 82.4206 132.553 81.4922 133.152C80.5638 133.751 79.4258 134.051 78.0781 134.051C76.9102 134.051 75.9668 133.826 75.248 133.377C74.5592 132.928 74.0202 132.374 73.6309 131.715C73.2715 131.056 73.0319 130.352 72.9121 129.604C72.7923 128.885 72.7324 128.226 72.7324 127.627C72.7324 127.477 72.8073 127.253 72.957 126.953C73.1367 126.654 73.3763 126.339 73.6758 126.01C74.0052 125.71 74.4095 125.441 74.8887 125.201C75.3678 124.962 75.9069 124.812 76.5059 124.752C76.2363 125.561 76.0716 126.294 76.0117 126.953C75.9518 127.312 75.9368 127.672 75.9668 128.031C75.9668 129.02 76.1615 129.843 76.5508 130.502C76.9401 131.161 77.5391 131.49 78.3477 131.49C79.2161 131.49 79.9199 131.116 80.459 130.367C80.998 129.648 81.4023 128.765 81.6719 127.717C81.9714 126.699 82.166 125.62 82.2559 124.482C82.3757 123.374 82.4355 122.431 82.4355 121.652V120.35C82.2559 120.679 82.0312 121.023 81.7617 121.383C81.5221 121.742 81.2227 122.072 80.8633 122.371C80.5039 122.671 80.0697 122.91 79.5605 123.09C79.0814 123.299 78.5124 123.404 77.8535 123.404ZM79.6953 107.682C79.1862 107.682 78.6921 107.906 78.2129 108.355C77.7637 108.805 77.3594 109.404 77 110.152C76.6406 110.871 76.3561 111.695 76.1465 112.623C75.9368 113.551 75.832 114.48 75.832 115.408C75.832 116.007 75.862 116.621 75.9219 117.25C76.0117 117.879 76.1615 118.463 76.3711 119.002C76.6107 119.511 76.9102 119.93 77.2695 120.26C77.6289 120.589 78.1081 120.754 78.707 120.754C79.1562 120.724 79.5755 120.544 79.9648 120.215C80.2943 119.945 80.6237 119.511 80.9531 118.912C81.3125 118.313 81.597 117.46 81.8066 116.352C82.0462 116.591 82.2259 116.816 82.3457 117.025C82.4954 117.235 82.6152 117.43 82.7051 117.609C82.735 117.37 82.75 117.085 82.75 116.756C82.7799 116.426 82.7949 116.052 82.7949 115.633C82.7949 114.824 82.75 113.956 82.6602 113.027C82.5703 112.069 82.4056 111.201 82.166 110.422C81.9564 109.643 81.6419 108.999 81.2227 108.49C80.8333 107.951 80.3242 107.682 79.6953 107.682ZM102.156 120.709C102.216 120.919 102.306 121.113 102.426 121.293C102.516 121.443 102.635 121.592 102.785 121.742C102.965 121.862 103.174 121.937 103.414 121.967C103.204 122.386 102.995 122.671 102.785 122.82C102.665 122.91 102.561 122.97 102.471 123C102.201 123.09 101.797 123.135 101.258 123.135C100.719 123.135 100.195 122.97 99.6855 122.641C99.5059 122.491 99.3411 122.266 99.1914 121.967C99.0417 121.727 98.9069 121.398 98.7871 120.979C98.6973 120.529 98.6224 119.96 98.5625 119.271C98.1432 120.17 97.6641 120.889 97.125 121.428C96.6159 121.937 96.1068 122.311 95.5977 122.551C95.0286 122.88 94.4447 123.075 93.8457 123.135C93.097 123.195 92.3783 123.075 91.6895 122.775C91.0306 122.446 90.4616 121.967 89.9824 121.338C89.5332 120.679 89.1888 119.885 88.9492 118.957C88.7096 118.029 88.6348 116.98 88.7246 115.812C88.8145 114.585 89.054 113.492 89.4434 112.533C89.8327 111.575 90.2969 110.721 90.8359 109.973C91.375 109.224 91.944 108.595 92.543 108.086C93.1419 107.547 93.7109 107.113 94.25 106.783C94.819 106.424 95.2982 106.169 95.6875 106.02C96.1068 105.84 96.3763 105.735 96.4961 105.705C96.8255 105.615 97.11 105.585 97.3496 105.615C97.5892 105.645 97.7988 105.78 97.9785 106.02C98.0384 106.109 98.1133 106.214 98.2031 106.334C98.263 106.454 98.3379 106.618 98.4277 106.828C98.5176 107.008 98.5924 107.217 98.6523 107.457C97.9336 107.786 97.2598 108.161 96.6309 108.58C96.002 108.969 95.418 109.449 94.8789 110.018C94.3698 110.587 93.9206 111.275 93.5312 112.084C93.1419 112.893 92.8424 113.881 92.6328 115.049C92.3333 116.516 92.4082 117.699 92.8574 118.598C93.3366 119.496 93.9805 119.87 94.7891 119.721C95.2682 119.571 95.7324 119.286 96.1816 118.867C96.571 118.508 96.9753 117.969 97.3945 117.25C97.8438 116.531 98.263 115.543 98.6523 114.285C98.8021 112.488 98.9219 111.081 99.0117 110.062C99.1315 109.014 99.2363 108.221 99.3262 107.682C99.446 107.053 99.5358 106.633 99.5957 106.424C99.6855 106.274 99.8652 106.139 100.135 106.02C100.404 105.87 100.704 105.75 101.033 105.66C101.363 105.57 101.662 105.525 101.932 105.525C102.201 105.495 102.381 105.495 102.471 105.525C102.531 105.555 102.561 105.93 102.561 106.648C102.561 107.337 102.531 108.221 102.471 109.299C102.441 110.347 102.396 111.5 102.336 112.758C102.276 113.986 102.216 115.154 102.156 116.262C102.126 117.37 102.096 118.343 102.066 119.182C102.066 119.99 102.096 120.499 102.156 120.709ZM110.691 121.787C110.661 121.967 110.497 122.161 110.197 122.371C109.928 122.551 109.598 122.715 109.209 122.865C108.85 123.015 108.505 123.105 108.176 123.135C107.846 123.195 107.622 123.165 107.502 123.045C107.382 122.925 107.188 122.701 106.918 122.371C106.648 122.042 106.484 121.503 106.424 120.754C106.364 119.975 106.334 119.002 106.334 117.834C106.334 116.636 106.319 115.318 106.289 113.881V112.084C106.289 111.545 106.274 110.916 106.244 110.197C106.244 109.479 106.229 108.73 106.199 107.951C106.469 107.801 106.738 107.667 107.008 107.547C107.307 107.397 107.577 107.277 107.816 107.188C108.086 107.068 108.34 106.978 108.58 106.918C109.209 106.738 109.688 106.633 110.018 106.604C110.347 106.574 110.542 106.678 110.602 106.918C110.632 107.098 110.617 107.532 110.557 108.221C110.497 108.82 110.422 109.733 110.332 110.961C110.242 112.159 110.092 113.836 109.883 115.992C110.272 115.034 110.587 114.21 110.826 113.521C111.096 112.833 111.32 112.279 111.5 111.859C111.68 111.35 111.844 110.946 111.994 110.646C112.144 110.257 112.339 109.823 112.578 109.344C112.818 108.865 113.057 108.415 113.297 107.996C113.566 107.577 113.806 107.202 114.016 106.873C114.255 106.544 114.435 106.349 114.555 106.289C114.645 106.229 114.914 106.229 115.363 106.289C115.812 106.349 116.292 106.499 116.801 106.738C117.31 106.948 117.804 107.262 118.283 107.682C118.762 108.071 119.077 108.55 119.227 109.119C119.406 109.778 119.466 110.646 119.406 111.725C119.376 112.803 119.301 113.911 119.182 115.049C119.092 116.187 119.017 117.265 118.957 118.283C118.897 119.301 118.957 120.08 119.137 120.619C119.197 120.919 119.286 121.188 119.406 121.428C119.466 121.667 119.541 121.892 119.631 122.102C119.751 122.281 119.87 122.416 119.99 122.506C119.271 122.835 118.688 123.075 118.238 123.225C117.789 123.374 117.445 123.479 117.205 123.539C116.906 123.629 116.696 123.659 116.576 123.629C116.307 123.539 116.067 123.314 115.857 122.955C115.678 122.596 115.513 122.027 115.363 121.248C115.303 121.008 115.273 120.619 115.273 120.08C115.303 119.511 115.348 118.882 115.408 118.193C115.468 117.475 115.528 116.741 115.588 115.992C115.678 115.214 115.738 114.495 115.768 113.836C115.827 113.147 115.872 112.563 115.902 112.084C115.932 111.575 115.932 111.23 115.902 111.051C115.753 110.512 115.543 110.137 115.273 109.928C115.004 109.688 114.794 109.658 114.645 109.838C114.255 110.287 113.836 111.021 113.387 112.039C112.967 113.027 112.563 114.12 112.174 115.318C111.785 116.486 111.455 117.654 111.186 118.822C110.916 119.99 110.751 120.979 110.691 121.787ZM122.865 107.098C122.865 106.918 123.105 106.723 123.584 106.514C124.063 106.304 124.587 106.139 125.156 106.02C125.755 105.87 126.294 105.795 126.773 105.795C127.283 105.765 127.537 105.87 127.537 106.109C127.537 106.559 127.507 107.202 127.447 108.041C127.387 108.85 127.312 109.718 127.223 110.646C127.133 111.545 127.043 112.458 126.953 113.387C126.863 114.285 126.803 115.049 126.773 115.678C126.714 116.337 126.654 117.055 126.594 117.834C126.534 118.493 126.489 119.227 126.459 120.035C126.429 120.844 126.429 121.667 126.459 122.506C126.459 122.656 126.309 122.805 126.01 122.955C125.71 123.105 125.381 123.21 125.021 123.27C124.662 123.359 124.318 123.404 123.988 123.404C123.659 123.404 123.479 123.344 123.449 123.225C123.389 123.105 123.329 122.895 123.27 122.596C123.21 122.296 123.15 121.877 123.09 121.338C123.03 120.769 122.985 120.05 122.955 119.182C122.925 118.283 122.94 117.205 123 115.947C123.12 113.462 123.135 111.545 123.045 110.197C122.955 108.82 122.895 107.786 122.865 107.098ZM126.01 98.1582C126.609 98.1582 127.178 98.3379 127.717 98.6973C128.256 99.0566 128.525 99.5358 128.525 100.135C128.525 100.584 128.406 101.018 128.166 101.438C127.956 101.857 127.687 102.231 127.357 102.561C127.028 102.89 126.654 103.16 126.234 103.369C125.815 103.549 125.426 103.639 125.066 103.639C124.587 103.639 124.198 103.564 123.898 103.414C123.599 103.234 123.359 103.04 123.18 102.83C123.03 102.59 122.925 102.336 122.865 102.066C122.805 101.797 122.775 101.542 122.775 101.303C122.775 101.003 122.82 100.674 122.91 100.314C123 99.9251 123.165 99.5807 123.404 99.2812C123.644 98.9518 123.973 98.6823 124.393 98.4727C124.812 98.263 125.351 98.1582 126.01 98.1582ZM124.887 102.336C125.066 102.336 125.261 102.276 125.471 102.156C125.71 102.007 125.92 101.842 126.1 101.662C126.309 101.482 126.474 101.288 126.594 101.078C126.743 100.868 126.818 100.689 126.818 100.539C126.818 100.299 126.699 100.18 126.459 100.18C126.309 100.18 126.115 100.24 125.875 100.359C125.665 100.479 125.456 100.629 125.246 100.809C125.036 100.958 124.857 101.138 124.707 101.348C124.587 101.527 124.527 101.707 124.527 101.887C124.527 102.186 124.647 102.336 124.887 102.336ZM142.945 117.34C142.945 117.669 142.826 118.178 142.586 118.867C142.376 119.526 142.017 120.2 141.508 120.889C140.999 121.548 140.34 122.132 139.531 122.641C138.753 123.15 137.794 123.404 136.656 123.404C135.039 123.404 133.676 122.97 132.568 122.102C131.49 121.203 130.727 119.93 130.277 118.283C129.918 116.906 129.813 115.438 129.963 113.881C130.143 112.294 130.577 110.826 131.266 109.479C131.954 108.131 132.913 106.993 134.141 106.064C135.368 105.106 136.866 104.582 138.633 104.492C139.531 104.462 140.28 104.627 140.879 104.986C141.478 105.346 141.942 105.81 142.271 106.379C142.601 106.948 142.796 107.577 142.855 108.266C142.915 108.924 142.84 109.553 142.631 110.152C142.451 110.751 142.152 111.26 141.732 111.68C141.343 112.069 140.834 112.279 140.205 112.309C139.576 112.368 139.052 112.294 138.633 112.084C138.243 111.844 137.929 111.56 137.689 111.23C137.48 110.901 137.33 110.557 137.24 110.197C137.18 109.838 137.18 109.523 137.24 109.254C137.33 108.865 137.48 108.505 137.689 108.176C137.869 107.876 138.124 107.577 138.453 107.277C138.812 106.978 139.277 106.738 139.846 106.559C139.756 106.499 139.666 106.469 139.576 106.469C139.486 106.469 139.396 106.454 139.307 106.424C139.187 106.424 139.097 106.409 139.037 106.379C138.558 106.379 138.004 106.544 137.375 106.873C136.776 107.202 136.192 107.727 135.623 108.445C135.084 109.164 134.62 110.092 134.23 111.23C133.871 112.339 133.691 113.686 133.691 115.273C133.691 115.962 133.766 116.651 133.916 117.34C134.066 117.999 134.29 118.598 134.59 119.137C134.919 119.646 135.309 120.065 135.758 120.395C136.237 120.694 136.791 120.844 137.42 120.844C138.139 120.844 138.768 120.694 139.307 120.395C139.876 120.065 140.355 119.691 140.744 119.271C141.133 118.852 141.433 118.433 141.643 118.014C141.882 117.594 142.047 117.28 142.137 117.07C142.227 116.891 142.376 116.801 142.586 116.801C142.826 116.801 142.945 116.98 142.945 117.34Z" fill="#8FC543"/>
<path d="M64.1416 146.708H69.0276V148.248H64.1416V146.708ZM64.2956 152H62.4756V142.2H69.6296V143.726H64.2956V152ZM80.9016 152V150.488L80.8036 150.166V147.52C80.8036 147.007 80.6496 146.61 80.3416 146.33C80.0336 146.041 79.567 145.896 78.9416 145.896C78.5216 145.896 78.1063 145.961 77.6956 146.092C77.2943 146.223 76.9536 146.405 76.6736 146.638L75.9876 145.364C76.389 145.056 76.865 144.827 77.4156 144.678C77.9756 144.519 78.5543 144.44 79.1516 144.44C80.2343 144.44 81.0696 144.701 81.6576 145.224C82.255 145.737 82.5536 146.535 82.5536 147.618V152H80.9016ZM78.5496 152.098C77.9896 152.098 77.4996 152.005 77.0796 151.818C76.6596 151.622 76.333 151.356 76.0996 151.02C75.8756 150.675 75.7636 150.287 75.7636 149.858C75.7636 149.438 75.8616 149.06 76.0576 148.724C76.263 148.388 76.5943 148.122 77.0516 147.926C77.509 147.73 78.1156 147.632 78.8716 147.632H81.0416V148.794H78.9976C78.4003 148.794 77.999 148.892 77.7936 149.088C77.5883 149.275 77.4856 149.508 77.4856 149.788C77.4856 150.105 77.6116 150.357 77.8636 150.544C78.1156 150.731 78.4656 150.824 78.9136 150.824C79.343 150.824 79.7256 150.726 80.0616 150.53C80.407 150.334 80.6543 150.045 80.8036 149.662L81.0976 150.712C80.9296 151.151 80.6263 151.491 80.1876 151.734C79.7583 151.977 79.2123 152.098 78.5496 152.098ZM90.1195 152V144.524H91.7855V146.582L91.5895 145.98C91.8135 145.476 92.1635 145.093 92.6395 144.832C93.1249 144.571 93.7269 144.44 94.4455 144.44V146.106C94.3709 146.087 94.3009 146.078 94.2355 146.078C94.1702 146.069 94.1049 146.064 94.0395 146.064C93.3769 146.064 92.8495 146.26 92.4575 146.652C92.0655 147.035 91.8695 147.609 91.8695 148.374V152H90.1195ZM110.686 144.44C111.283 144.44 111.811 144.557 112.268 144.79C112.735 145.023 113.099 145.383 113.36 145.868C113.621 146.344 113.752 146.96 113.752 147.716V152H112.002V147.94C112.002 147.277 111.857 146.783 111.568 146.456C111.279 146.129 110.863 145.966 110.322 145.966C109.939 145.966 109.599 146.05 109.3 146.218C109.011 146.386 108.782 146.633 108.614 146.96C108.455 147.287 108.376 147.702 108.376 148.206V152H106.626V147.94C106.626 147.277 106.481 146.783 106.192 146.456C105.903 146.129 105.487 145.966 104.946 145.966C104.563 145.966 104.223 146.05 103.924 146.218C103.635 146.386 103.406 146.633 103.238 146.96C103.079 147.287 103 147.702 103 148.206V152H101.25V144.524H102.916V146.512L102.622 145.924C102.874 145.439 103.238 145.07 103.714 144.818C104.199 144.566 104.75 144.44 105.366 144.44C106.066 144.44 106.673 144.613 107.186 144.958C107.709 145.303 108.054 145.826 108.222 146.526L107.536 146.288C107.779 145.728 108.18 145.28 108.74 144.944C109.3 144.608 109.949 144.44 110.686 144.44Z" fill="white"/>
<path fill-rule="evenodd" clip-rule="evenodd" d="M97 26.5V35.3006C98.3377 34.9733 99.7856 34.7993 101.331 34.7993C102.254 34.7993 103 35.538 103 36.4482C103 39.4526 102.081 42.0842 100.771 44.1718C100.665 44.3433 100.552 44.5148 100.438 44.6797C100.732 44.6665 101.031 44.6599 101.331 44.6599C102.254 44.6599 103 45.3986 103 46.3088C103 49.3131 102.081 51.9448 100.771 54.0324L100.588 54.316C100.835 54.3061 101.081 54.3028 101.331 54.3028C102.254 54.3028 103 55.0415 103 55.9517C103 58.9528 102.081 61.5845 100.771 63.672C100.655 63.86 100.535 64.0414 100.412 64.2195C100.718 64.2063 101.025 64.1997 101.331 64.1997C102.254 64.1997 103 64.9417 103 65.8519C103 69.8654 101.294 72.5696 98.8761 74.367C96.1812 76.3655 92.4547 77.1438 89.5 77.3449V86.959C103.714 86.1807 115 74.4083 115 59.9999C115 52.569 111.998 45.8391 107.141 40.957C106.751 40.5655 106.728 39.9341 107.105 39.5304L107.787 38.7994C108.164 38.3956 108.798 38.3727 109.189 38.7628C114.632 44.1936 118 51.7035 118 59.9999C118 76.5685 104.569 89.9999 88 89.9999C71.4315 89.9999 58 76.5685 58 59.9999C58 51.7035 61.3677 44.1937 66.8107 38.7629C67.2017 38.3727 67.8359 38.3956 68.2128 38.7994L68.8951 39.5305C69.2719 39.9342 69.2487 40.5656 68.8593 40.957C64.0019 45.8392 61 52.569 61 59.9999C61 74.4083 72.286 86.1807 86.5 86.959V77.3449C83.542 77.1438 79.8188 76.3655 77.1239 74.367C74.7055 72.5696 73 69.8654 73 65.8519C73 64.9417 73.7495 64.1997 74.6689 64.1997C74.9754 64.1997 75.2818 64.2063 75.5916 64.2195C75.465 64.0414 75.3451 63.86 75.2285 63.672C73.9227 61.5845 73 58.9528 73 55.9517C73 55.0415 73.7495 54.3028 74.6689 54.3028C74.9187 54.3028 75.1652 54.3061 75.4117 54.316L75.2285 54.0324C73.9227 51.9448 73 49.3131 73 46.3088C73 45.3986 73.7495 44.6599 74.6689 44.6599C74.9687 44.6599 75.2685 44.6665 75.5616 44.6797C75.4484 44.5148 75.3385 44.3434 75.2286 44.172C73.9228 42.0844 73 39.4526 73 36.4482C73 35.538 73.7495 34.7993 74.6689 34.7993C76.1296 34.7993 77.5357 34.9258 79 35.3205V26.5C79 25.9477 79.4477 25.5 80 25.5H81C81.5523 25.5 82 25.9477 82 26.5V36.4892C83.0469 37.0221 84.1512 37.7117 85.3451 38.5984C85.4814 38.7231 85.6398 38.8497 85.8007 38.9784C86.0527 39.1798 86.311 39.3864 86.5 39.5977V19.6522C86.5 18.742 87.0806 18 88 18C88.9194 18 89.5 18.742 89.5 19.6522V39.5977C89.6913 39.3795 89.9575 39.1677 90.2156 38.9623C90.3709 38.8387 90.5235 38.7173 90.6549 38.5984C91.3578 37.9586 92.1439 37.3848 93 36.8868C93.3122 36.7052 93.6382 36.5275 94 36.3537V26.5C94 25.9477 94.4477 25.5 95 25.5H96C96.5523 25.5 97 25.9477 97 26.5ZM96.8841 71.7353C94.9187 73.1962 92.2338 73.8195 89.8754 74.0207C90.4917 71.5605 92.4171 69.7994 94.9121 68.7309C95.1253 68.6584 95.3451 68.5726 95.565 68.4737C96.7908 68.0252 98.1299 67.7284 99.5023 67.5932C99.1292 69.4598 98.1532 70.7954 96.8841 71.7353ZM99.5323 38.1994C99.2791 39.8153 98.6962 41.2466 97.9467 42.4437C96.8368 44.2148 95.21 45.2705 93.5613 46.3404C92.564 46.9876 91.5587 47.6399 90.6549 48.459C90.3051 48.7756 89.9754 49.1087 89.6689 49.4583V48.4293C89.7022 45.5338 90.8448 42.8955 92.9067 41.0223C94.5456 39.5317 96.7841 38.5094 99.5323 38.1994ZM99.5323 48.06C99.2791 49.6759 98.6962 51.1072 97.9467 52.3043C96.8079 54.119 95.2597 55.0458 93.6674 55.9991C92.6495 56.6085 91.6135 57.2287 90.6549 58.0986C90.3051 58.4185 89.9754 58.7516 89.6689 59.0979V58.2899C89.7022 55.3911 90.8448 52.7561 92.9067 50.8829C94.5456 49.3923 96.7841 48.37 99.5323 48.06ZM94.9787 59.0682C95.3851 58.9231 95.8115 58.7318 96.2445 58.4878C97.2372 58.1052 98.3364 57.8348 99.5323 57.6996C99.2791 59.3188 98.6962 60.7468 97.9467 61.9439C96.9007 63.6127 95.5716 64.7999 94.4057 65.3737C92.6069 66.03 90.9813 66.9567 89.6689 68.1604V67.9296C89.7022 65.034 90.8448 62.3957 92.9067 60.5226C93.5163 59.9685 94.2059 59.4804 94.9787 59.0682ZM86.3344 48.4293V49.4583C86.0247 49.112 85.6949 48.7789 85.3451 48.459C84.4407 47.6394 83.4355 46.9866 82.4383 46.339C80.7908 45.2692 79.1654 44.2136 78.0533 42.4437C77.3038 41.2466 76.7209 39.8153 76.4677 38.1994C79.2159 38.5094 81.4577 39.5317 83.0933 41.0223C85.1552 42.8955 86.2978 45.5338 86.3344 48.4293ZM86.3344 58.2899V59.0979C86.0247 58.7516 85.6949 58.4185 85.3451 58.0986C84.3866 57.2287 83.3506 56.6085 82.3326 55.999C80.7403 55.0458 79.1921 54.1189 78.0533 52.3043C77.3038 51.1072 76.7209 49.6759 76.4677 48.06C79.2159 48.37 81.4577 49.3923 83.0933 50.8829C85.1552 52.7561 86.2978 55.3911 86.3344 58.2899ZM86.3344 67.9296V68.1604C85.0187 66.96 83.3931 66.03 81.5943 65.3737C80.4284 64.7999 79.0993 63.6127 78.0533 61.9439C77.3038 60.7468 76.7209 59.3188 76.4677 57.6996C77.6636 57.8348 78.7628 58.1052 79.7555 58.4878C80.1885 58.7318 80.6149 58.9231 81.0213 59.0682C81.7941 59.4804 82.4837 59.9685 83.0933 60.5226C85.1552 62.3957 86.2978 65.034 86.3344 67.9296ZM80.435 68.4737C80.6549 68.5726 80.8747 68.6584 81.0879 68.7309C83.5829 69.7994 85.5083 71.5605 86.1246 74.0207C83.7662 73.8195 81.0813 73.1962 79.1159 71.7353C77.8468 70.7954 76.8708 69.4598 76.4977 67.5932C77.8701 67.7284 79.2092 68.0252 80.435 68.4737Z" fill="white"/>
</svg>
