<svg width="80" height="80" viewBox="0 0 80 80" fill="none" xmlns="http://www.w3.org/2000/svg">
<rect x="-6.10352e-05" width="80" height="80" rx="40" fill="black"/>
<path fill-rule="evenodd" clip-rule="evenodd" d="M54.3159 25C54.2311 25 54.147 25.0158 54.068 25.0465L19.2992 38.5677C19.1188 38.6378 19 38.8116 19 39.0052C19 39.1971 19.1168 39.3697 19.295 39.441L27.8955 42.8812L49.4631 29.1563C49.8934 28.8825 50.4608 28.9764 50.78 29.3743C51.0992 29.7721 51.0677 30.3464 50.7071 30.7071L35 46.4142V53.1492L37.2191 50.3753C37.5486 49.9634 38.1413 49.8783 38.5734 50.1808L48.1224 56.8651C48.2479 56.9529 48.3973 57 48.5505 57C48.9097 57 49.218 56.7441 49.2842 56.3911L54.9857 25.9829C54.9952 25.9324 55 25.8812 55 25.8299V25.6841C55 25.3063 54.6937 25 54.3159 25ZM53.3431 23.1825C53.6532 23.0619 53.9831 23 54.3159 23C55.7983 23 57 24.2017 57 25.6841V25.8299C57 26.0049 56.9837 26.1795 56.9515 26.3515L51.2499 56.7597C51.0064 58.0587 49.8721 59 48.5505 59C47.987 59 47.4371 58.8267 46.9755 58.5035L38.1949 52.3571L34.7808 56.6247C34.5155 56.9563 34.0697 57.0842 33.6689 56.9436C33.2682 56.8031 33 56.4247 33 56V46C33 45.7348 33.1053 45.4804 33.2928 45.2929L42.8513 35.7345L28.5368 44.8437C28.2654 45.0164 27.9273 45.048 27.6286 44.9285L18.5522 41.2979C17.6147 40.9229 17 40.0149 17 39.0052C17 37.9868 17.6252 37.0728 18.5743 36.7037L53.3431 23.1825Z" fill="white"/>
</svg>
