<svg width="80" height="80" viewBox="0 0 80 80" fill="none" xmlns="http://www.w3.org/2000/svg">
<rect x="6.10352e-05" width="80" height="80" rx="40" fill="black"/>
<path fill-rule="evenodd" clip-rule="evenodd" d="M40.0001 60C51.0458 60 60.0001 51.0457 60.0001 40C60.0001 28.9543 51.0458 20 40.0001 20C28.9544 20 20.0001 28.9543 20.0001 40C20.0001 51.0457 28.9544 60 40.0001 60ZM40.0001 58C49.9412 58 58.0001 49.9411 58.0001 40C58.0001 39.0069 57.9196 38.0326 57.7649 37.0832C53.8546 42.4305 49.0694 46.3006 43.4998 48.5521C38.087 50.7403 31.9878 51.3777 25.3167 50.414C28.5786 55.0048 33.9396 58 40.0001 58ZM23.9539 48.1645C22.7046 45.714 22.0001 42.9393 22.0001 40C22.0001 30.0589 30.0589 22 40.0001 22C48.0182 22 54.8119 27.2427 57.1401 34.4871C55.0288 37.646 52.6418 40.2941 50.0001 42.4209V30C50.0001 28.8954 49.1046 28 48.0001 28H44.0001C42.8955 28 42.0001 28.8954 42.0001 30V32H38.0001C36.8955 32 36.0001 32.8954 36.0001 34V36H32.0001C30.8955 36 30.0001 36.8954 30.0001 38V48.8303C28.0511 48.7657 26.0351 48.5451 23.9539 48.1645ZM32.0001 48.8416C33.3688 48.8109 34.7024 48.7001 36.0001 48.511V38H32.0001V48.8416ZM38.0001 48.1515C39.377 47.8559 40.7107 47.4677 42.0001 46.9888V34H38.0001V48.1515ZM44.0001 46.1571C45.3855 45.5172 46.7195 44.7641 48.0001 43.8988V30H44.0001V46.1571Z" fill="white"/>
</svg>
