<svg width="81" height="80" viewBox="0 0 81 80" fill="none" xmlns="http://www.w3.org/2000/svg">
<rect x="0.143494" width="80" height="80" rx="40" fill="black"/>
<path fill-rule="evenodd" clip-rule="evenodd" d="M24.2485 28.3179C24.1251 28.1874 24.001 28.0547 23.8763 27.9196C23.3249 27.3222 22.301 27.5327 22.1327 28.317C22.0899 28.5165 22.0515 28.7122 22.0176 28.9047C21.4859 31.9204 22.0552 34.1195 24.1478 36.7374C24.6771 37.3995 25.3038 38.0885 26.0349 38.8242C24.877 38.824 23.7122 38.7644 22.5849 38.4853C21.706 38.2677 20.8488 39.0603 21.2415 39.8518C21.3092 39.9881 21.3776 40.1212 21.447 40.251C22.502 42.2271 23.7691 43.47 25.7954 44.4963C26.5285 44.8675 27.361 45.2105 28.3188 45.5494C27.2484 46.145 26.455 46.4655 25.5322 46.6013C24.787 46.711 24.3095 47.5105 24.7574 48.0972C24.905 48.2904 25.0513 48.4744 25.1972 48.6498C26.3451 50.03 27.4642 50.8772 28.8987 51.4656C29.7218 51.8033 30.6489 52.0557 31.7448 52.2747C28.6561 53.9625 26.3964 54.7618 23.3396 54.8102C22.9756 54.816 22.6002 54.8111 22.2109 54.7958C21.2246 54.757 20.8001 55.7445 21.661 56.2118C22.0225 56.4081 22.4248 56.6103 22.8688 56.8119C25.2971 57.9146 28.9718 59 34.0287 59C44.3065 59 58.0102 51.1538 58.0102 34.3407L60.844 31.5593C61.4878 30.9273 61.0253 29.8571 60.1083 29.8571H58.0102L59.8378 27.4654C60.4005 26.729 59.7292 25.7087 58.8017 25.8908L55.7263 26.4945C55.7263 26.4945 48.8744 23.1319 44.3065 26.4945C41.208 28.7755 40.2113 32.0879 39.8906 33.9829C39.7386 34.8816 39.7386 35.4615 39.7386 35.4615C32.5084 34.7651 27.5986 31.8571 24.2485 28.3179ZM53.8498 27.891C53.2162 27.6578 52.3363 27.381 51.3433 27.1983C49.2875 26.82 47.153 26.9118 45.5575 28.0864C43.7269 29.4339 42.7776 31.2547 42.287 32.8197C41.877 34.1276 41.8134 35.2976 41.8053 36.5695C41.8015 37.1597 41.2966 37.6215 40.7092 37.5649L39.5339 37.4517C33.5312 36.8735 28.2668 35.0835 23.897 30.8563C23.888 33.5261 25.7376 35.6397 27.5243 37.4378L29.207 39.1313C29.8384 39.7667 29.3731 40.8246 28.4622 40.8245L26.0346 40.8242C25.3707 40.8241 24.7753 40.8065 24.2148 40.7626C25.9183 42.8565 28.6747 43.5459 31.1104 44.4079C31.9348 44.6997 32.0315 45.7906 31.2705 46.214L29.3488 47.2833C28.7203 47.633 28.1215 47.9288 27.5001 48.1563C29.4472 50.08 32.2954 50.3426 34.8608 50.8553C35.7957 51.0421 35.9911 52.2511 35.1598 52.7054L32.7607 54.0163C30.9062 55.0297 29.2361 55.7931 27.4629 56.2633C29.2622 56.6978 31.4425 57 34.0287 57C43.3955 57 55.9438 49.8389 55.9438 34.3407V33.9401C55.9438 33.6717 56.0517 33.4145 56.2433 33.2265L57.6384 31.8571H55.961C55.1128 31.8571 54.626 30.9226 55.1303 30.2625L56.5779 28.368L55.7634 28.5279C55.5489 28.5701 55.3267 28.5402 55.1297 28.4453C54.71 28.2432 54.2956 28.0551 53.8498 27.891Z" fill="white"/>
</svg>
