<svg width="60" height="60" viewBox="0 0 60 60" fill="none" xmlns="http://www.w3.org/2000/svg">
<path fill-rule="evenodd" clip-rule="evenodd" d="M30 17.5056V11.8133C32.9862 13.7408 37.9194 15 43.5 15C49.0806 15 54.0138 13.7408 57 11.8133L56.9997 16.5C56.9997 16.6712 56.7102 17.8066 53.9256 19.0722C51.4119 20.2148 47.7288 21 43.4997 21C39.2709 21 35.5875 20.2148 33.0741 19.0722C32.5485 18.8335 32.1123 18.5993 31.7499 18.3755L31.7424 18.3862C34.0524 19.7206 35.5572 21.3651 35.9166 23.1627C38.187 23.6978 40.7658 24 43.4997 24C49.0803 24 54.0138 22.7407 57 20.8131V25.5C57 25.6712 56.7102 26.8066 53.9259 28.0722C51.4122 29.2148 47.7291 30 43.5 30C40.7004 30 38.1402 29.6559 36 29.0918V32.1822C38.2503 32.7051 40.7994 33 43.5 33C49.0806 33 54.0138 31.7406 57 29.8133V34.5C57 34.6713 56.7102 35.8065 53.9259 37.0722C51.4122 38.2149 47.7291 39 43.5 39C40.7004 39 38.1402 38.6559 36 38.0919V41.1822C38.2503 41.7051 40.7994 42 43.5 42C49.0806 42 54.0138 40.7406 57 38.8134V43.5C57 43.6713 56.7102 44.8065 53.9259 46.0722C51.4122 47.2149 47.7291 48 43.5 48C40.7004 48 38.1402 47.6559 36 47.0919V50.1822C38.2503 50.7051 40.7994 51 43.5 51C52.6125 51 60 47.6421 60 43.5V7.5C60 3.35787 52.6125 0 43.5 0C34.3875 0 27 3.35787 27 7.5V16.4148C28.0768 16.733 29.0816 17.0987 30 17.5056ZM57 7.5C57 7.67124 56.7102 8.80656 53.9259 10.0722C51.4122 11.2148 47.7291 12 43.5 12C39.2709 12 35.5878 11.2148 33.0741 10.0722C30.2898 8.80656 30 7.67124 30 7.5C30 7.32876 30.2898 6.19344 33.0741 4.92777C35.5878 3.78525 39.2709 3 43.5 3C47.7291 3 51.4122 3.78525 53.9259 4.92777C56.7102 6.19344 57 7.32876 57 7.5Z" fill="#8FC543"/>
<path fill-rule="evenodd" clip-rule="evenodd" d="M0 25.5C0 21.3579 7.38738 18 16.5 18C25.6126 18 33 21.3579 33 25.5V52.5C33 56.6421 25.6126 60 16.5 60C7.38738 60 0 56.6421 0 52.5V25.5ZM30 25.5C30 25.6712 29.7103 26.8066 26.9258 28.0722C24.4122 29.2148 20.729 30 16.5 30C12.271 30 8.58783 29.2148 6.07416 28.0722C3.28968 26.8066 3 25.6712 3 25.5C3 25.3288 3.28968 24.1934 6.07416 22.9278C8.58783 21.7853 12.271 21 16.5 21C20.729 21 24.4122 21.7853 26.9258 22.9278C29.7103 24.1934 30 25.3288 30 25.5ZM3 43.5V38.8134C5.98608 40.7406 10.9195 42 16.5 42C22.0805 42 27.0139 40.7406 30 38.8134V43.5C30 43.6713 29.7103 44.8065 26.9258 46.0722C24.4122 47.2149 20.729 48 16.5 48C12.271 48 8.58783 47.2149 6.07416 46.0722C3.28968 44.8065 3 43.6713 3 43.5ZM30 29.8133V34.5C30 34.6713 29.7103 35.8065 26.9258 37.0722C24.4122 38.2149 20.729 39 16.5 39C12.271 39 8.58783 38.2149 6.07416 37.0722C3.28968 35.8065 3 34.6713 3 34.5V29.8133C5.98608 31.7406 10.9195 33 16.5 33C22.0805 33 27.0139 31.7406 30 29.8133ZM3 47.8134C5.98608 49.7406 10.9195 51 16.5 51C22.0805 51 27.0139 49.7406 30 47.8134V52.5C30 52.6713 29.7103 53.8065 26.9258 55.0722C24.4122 56.2149 20.729 57 16.5 57C12.271 57 8.58783 56.2149 6.07416 55.0722C3.28968 53.8065 3 52.6713 3 52.5V47.8134Z" fill="#8FC543"/>
</svg>
