<svg width="80" height="80" viewBox="0 0 80 80" fill="none" xmlns="http://www.w3.org/2000/svg">
<rect width="80" height="80" rx="40" fill="black"/>
<g clip-path="url(#clip0_0_18)">
<path fill-rule="evenodd" clip-rule="evenodd" d="M51.4496 21.9067C50.1315 21.9067 48.9391 22.4381 48.0801 23.2971C47.2172 24.1619 46.6839 25.3524 46.6839 26.6724C46.6839 27.9905 47.2172 29.181 48.0763 30.04C48.9391 30.9029 50.1315 31.4362 51.4496 31.4362C51.9867 31.4362 52.5029 31.3486 52.9848 31.1848C52.4648 31.1486 51.9486 31.0381 51.461 30.8533C49.8496 30.24 48.5905 28.8457 48.5905 26.6686C48.5905 26.1448 49.0172 25.7181 49.5429 25.7181C50.0686 25.7181 50.4953 26.1448 50.4953 26.6686C50.4953 27.9257 51.2134 28.7257 52.1296 29.0743C52.5086 29.219 52.9296 29.2914 53.3543 29.2914C53.7791 29.2914 54.2001 29.219 54.5791 29.0743C55.4343 28.7505 56.1163 28.0343 56.2077 26.9257C56.2115 26.84 56.2134 26.7562 56.2134 26.6724C56.2134 25.3524 55.682 24.1619 54.8229 23.3029C53.9601 22.4381 52.7677 21.9067 51.4496 21.9067ZM54.3086 51.4495C54.3086 51.9752 53.882 52.4019 53.3543 52.4019C52.8286 52.4019 52.402 51.9752 52.402 51.4495C52.402 50.1943 51.6858 49.3924 50.7677 49.0438C50.3886 48.899 49.9696 48.8267 49.5429 48.8267C49.1182 48.8267 48.6991 48.899 48.3201 49.0438C47.4629 49.3676 46.781 50.0857 46.6896 51.1943C46.6858 51.2781 46.6839 51.3619 46.6839 51.4476C46.6839 52.7676 47.2172 53.9581 48.0763 54.8171C48.9391 55.68 50.1315 56.2114 51.4496 56.2114C52.7677 56.2114 53.9582 55.68 54.8172 54.821C55.682 53.9581 56.2134 52.7676 56.2134 51.4476V51.3867L56.2115 51.3238C56.181 50.0552 55.6534 48.9105 54.821 48.08C53.9696 47.2248 52.7963 46.6971 51.4972 46.6819L51.3563 46.6838C50.8515 46.6952 50.3677 46.781 49.9143 46.9333C50.4324 46.9695 50.9505 47.08 51.4382 47.2667C53.0496 47.8781 54.3086 49.2724 54.3086 51.4495ZM21.9029 26.7486C21.9353 31.1638 24.682 34.8286 27.4305 38.4914C28.9563 40.5257 30.4839 42.5619 31.6077 44.779L51.4496 44.7771C52.6191 44.7771 53.7182 45.08 54.6763 45.6095C53.6229 43.539 52.1563 41.5848 50.6896 39.6286C47.8039 35.7829 44.9182 31.9333 44.7886 27.021C44.781 26.9048 44.7791 26.7886 44.7791 26.6724C44.7791 24.8362 45.5239 23.1695 46.7315 21.9581L46.7886 21.9029H26.6705C25.3543 21.9067 24.162 22.44 23.3029 23.299C22.4382 24.1619 21.9067 25.3543 21.9067 26.6724L21.9029 26.7486ZM29.4534 44.779C28.4553 43.021 27.1829 41.3238 25.9124 39.6305C22.9772 35.7162 20.042 31.8019 20.0058 26.7676C20.002 26.7352 20.0001 26.7048 20.0001 26.6724C20.0001 24.8362 20.7467 23.1695 21.9524 21.9619L21.9563 21.9562C23.1677 20.7486 24.8343 20.0019 26.6705 20.0019L51.2267 20.0038L51.4496 20C53.2858 20 54.9524 20.7467 56.1601 21.9524L56.1639 21.9562C57.3734 23.1676 58.1201 24.8343 58.1201 26.6724C58.1201 28.5067 57.3753 30.1733 56.1677 31.3829L56.1639 31.3867C54.9543 32.5943 53.2877 33.341 51.4496 33.341C50.2801 33.341 49.1791 33.0381 48.221 32.5086C49.2743 34.579 50.741 36.5333 52.2077 38.4895C55.141 42.4019 58.0763 46.3143 58.1182 51.3371L58.1201 51.4476C58.1201 53.2838 57.3734 54.9505 56.1677 56.1581L56.1639 56.1638C54.9658 57.36 53.3201 58.1029 51.5029 58.1181L51.4496 58.12H26.6705C24.8343 58.12 23.1696 57.3733 21.9601 56.1676L21.9543 56.1619C20.7467 54.9543 20.0001 53.2857 20.0001 51.4495C20.0001 49.6133 20.7448 47.9467 21.9524 46.739L21.9563 46.7333C23.1658 45.5257 24.8343 44.779 26.6705 44.779H29.4534ZM46.7829 46.6838H26.6705C25.3524 46.6838 24.1601 47.2171 23.301 48.0762C22.4382 48.939 21.9067 50.1314 21.9067 51.4495C21.9067 52.7676 22.4382 53.9581 23.2972 54.819C24.1601 55.6819 25.3524 56.2133 26.6705 56.2133H46.7867L46.7372 56.1657L46.7315 56.1619C45.5239 54.9524 44.7772 53.2857 44.7772 51.4476C44.7772 49.6114 45.5239 47.9467 46.7315 46.7352L46.7829 46.6838Z" fill="white"/>
</g>
<defs>
<clipPath id="clip0_0_18">
<rect width="40" height="40" fill="white" transform="translate(20.0001 20)"/>
</clipPath>
</defs>
</svg>
